<svg xmlns="http://www.w3.org/2000/svg" xmlns:xlink="http://www.w3.org/1999/xlink" viewBox="0 0 362 362"><defs><style>.cls-1{fill:none;}.cls-2{fill:url(#radial-gradient);}.cls-3{fill:#d8d8d8;}.cls-4{fill:url(#radial-gradient-2);}.cls-5{fill:url(#radial-gradient-3);}.cls-6{fill:#d84b35;}.cls-7{fill:#aa2f1f;}.cls-8{fill:#f4e39a;}.cls-9{clip-path:url(#clip-path);}.cls-10{fill:url(#radial-gradient-4);}.cls-11{fill:url(#radial-gradient-5);}.cls-12{fill:url(#radial-gradient-6);}.cls-13{clip-path:url(#clip-path-2);}.cls-14{clip-path:url(#clip-path-3);}.cls-15{clip-path:url(#clip-path-4);}</style><radialGradient id="radial-gradient" cx="181" cy="181" r="182.66" gradientUnits="userSpaceOnUse"><stop offset="0.65" stop-opacity="0.2"/><stop offset="0.98" stop-color="#fff" stop-opacity="0"/></radialGradient><radialGradient id="radial-gradient-2" cx="198.49" cy="197.34" r="189.19" gradientUnits="userSpaceOnUse"><stop offset="0.75" stop-opacity="0"/><stop offset="1"/></radialGradient><radialGradient id="radial-gradient-3" cx="168.04" cy="164.05" r="161.29" gradientTransform="translate(167.82 -61.28) rotate(48.17) scale(1 0.92)" gradientUnits="userSpaceOnUse"><stop offset="0.94" stop-color="#fff" stop-opacity="0"/><stop offset="1" stop-color="#fff"/></radialGradient><clipPath id="clip-path"><rect class="cls-1" x="53.17" y="52.97" width="128" height="128"/></clipPath><radialGradient id="radial-gradient-4" cx="174.42" cy="167.58" fx="152.77870119473948" r="130.23" gradientTransform="matrix(0.65, 0.76, -0.73, 0.63, 182.89, -70.47)" gradientUnits="userSpaceOnUse"><stop offset="0.86" stop-color="#ff6138"/><stop offset="0.86" stop-color="#ff6138"/><stop offset="1" stop-color="#e54225"/></radialGradient><radialGradient id="radial-gradient-5" cx="150.04" cy="147.92" r="140.38" gradientTransform="translate(180.96 -73.33) rotate(50.15) scale(1 1.12)" gradientUnits="userSpaceOnUse"><stop offset="0.63" stop-color="#e54225" stop-opacity="0"/><stop offset="1" stop-color="#e54225"/></radialGradient><radialGradient id="radial-gradient-6" cx="131.95" cy="107.02" r="82.03" gradientUnits="userSpaceOnUse"><stop offset="0" stop-color="#ff8b61"/><stop offset="1" stop-color="#ff8b61" stop-opacity="0"/></radialGradient><clipPath id="clip-path-2"><rect class="cls-1" x="53.17" y="180.97" width="128" height="128"/></clipPath><clipPath id="clip-path-3"><rect class="cls-1" x="181.17" y="180.97" width="128" height="128"/></clipPath><clipPath id="clip-path-4"><rect class="cls-1" x="181.17" y="52.97" width="128" height="128"/></clipPath></defs><title>tomato5</title><g id="Layer_2" data-name="Layer 2"><g id="outside_shadow" data-name="outside shadow"><circle class="cls-2" cx="181" cy="181" r="181"/></g><g id="inset_background" data-name="inset background"><circle class="cls-3" cx="181" cy="181" r="140"/></g><g id="inset_shadow" data-name="inset shadow"><circle class="cls-4" cx="181" cy="181" r="140.03"/></g><g id="inset_highlight" data-name="inset highlight"><circle class="cls-5" cx="181" cy="181" r="140"/></g><g id="tomato_inside" data-name="tomato inside"><circle class="cls-6" cx="181.17" cy="180.97" r="128"/></g><g id="seed_quarter_4" data-name="seed quarter 4"><path class="cls-7" d="M233.83,202.57c-7.1,26.06-10.78,24.57-34.83,38-17.63,9.85-11.68,50.74,27,37C250.55,268.85,270,250,278.67,217.1,288.51,180,242,172.56,233.83,202.57Z"/></g><g id="seed_quarter_3" data-name="seed quarter 3"><path class="cls-7" d="M160.47,230.15c-26.06-7.09-24.57-10.78-38-34.82-9.84-17.64-50.73-11.69-37,27,8.71,24.54,27.61,43.94,60.46,52.66C183,284.84,190.48,238.33,160.47,230.15Z"/></g><g id="seed_quarter_2" data-name="seed quarter 2"><path class="cls-7" d="M133.82,159.72c7.1-26.06,10.78-24.57,34.83-38,17.63-9.84,11.68-50.73-27-37C117.1,93.45,97.7,112.35,89,145.19,79.14,182.26,125.65,189.73,133.82,159.72Z"/></g><g id="seed_quarter_1" data-name="seed quarter 1"><path class="cls-7" d="M204.18,131.14c26.06,7.1,24.57,10.79,38,34.83,9.84,17.63,50.73,11.68,37-27C270.46,114.42,251.56,95,218.71,86.3,181.64,76.46,174.17,123,204.18,131.14Z"/></g><g id="seeds_4" data-name="seeds 4"><path id="seed_4-5" data-name="seed 4-5" class="cls-8" d="M168.88,97.53c.53,2.54-.93,8.65-2.29,13.45a3.71,3.71,0,0,1-6.46,1.34c-3.16-3.86-6.93-8.88-7.45-11.42a8.27,8.27,0,1,1,16.2-3.37Z"/><path id="seed_4-4" data-name="seed 4-4" class="cls-8" d="M148.78,104.88c1.12,2.34,1.16,8.61,1,13.6a3.73,3.73,0,0,1-6,2.85c-4-3-8.85-7-10-9.32a8.28,8.28,0,0,1,14.94-7.13Z"/><path id="seed_4-3" data-name="seed 4-3" class="cls-8" d="M128.18,117.6c1.83,1.84,4,7.74,5.46,12.5a3.73,3.73,0,0,1-4.67,4.67c-4.76-1.5-10.66-3.63-12.5-5.47a8.28,8.28,0,1,1,11.71-11.7Z"/><path id="seed_4-2" data-name="seed 4-2" class="cls-8" d="M114.08,133.78c2.43.91,6.82,5.4,10.15,9.11a3.72,3.72,0,0,1-2.31,6.19c-5,.61-11.21,1.11-13.64.2a8.27,8.27,0,0,1,5.8-15.5Z"/><path id="seed_4-1" data-name="seed 4-1" class="cls-8" d="M104.27,153.45c2.59,0,8.28,2.67,12.7,5a3.73,3.73,0,0,1,0,6.61c-4.42,2.3-10.11,5-12.7,5a8.28,8.28,0,1,1,0-16.55Z"/></g><g id="seeds_3" data-name="seeds 3"><path id="seed_3-5" data-name="seed 3-5" class="cls-8" d="M96.56,195.08c2.54-.53,8.64.93,13.45,2.29a3.72,3.72,0,0,1,1.34,6.46c-3.87,3.16-8.89,6.93-11.43,7.45a8.27,8.27,0,0,1-3.36-16.2Z"/><path id="seed_3-4" data-name="seed 3-4" class="cls-8" d="M103.9,215.19c2.34-1.12,8.62-1.17,13.61-1a3.71,3.71,0,0,1,2.84,6c-3,4-7,8.85-9.31,10a8.27,8.27,0,1,1-7.14-14.93Z"/><path id="seed_3-3" data-name="seed 3-3" class="cls-8" d="M116.63,235.79c1.83-1.84,7.73-4,12.49-5.47a3.72,3.72,0,0,1,4.67,4.67c-1.5,4.76-3.63,10.67-5.46,12.5a8.27,8.27,0,0,1-11.7-11.7Z"/><path id="seed_3-2" data-name="seed 3-2" class="cls-8" d="M132.81,249.88c.91-2.43,5.4-6.82,9.11-10.15A3.71,3.71,0,0,1,148.1,242c.61,5,1.12,11.21.21,13.64a8.27,8.27,0,0,1-15.5-5.8Z"/><path id="seed_3-1" data-name="seed 3-1" class="cls-8" d="M152.47,259.69c0-2.59,2.67-8.27,5-12.7a3.72,3.72,0,0,1,6.6,0c2.31,4.43,5,10.11,5,12.7a8.28,8.28,0,1,1-16.55,0Z"/></g><g id="seeds_2" data-name="seeds 2"><path id="seed_2-5" data-name="seed 2-5" class="cls-8" d="M198.1,265.41c-.52-2.55.93-8.65,2.29-13.45a3.73,3.73,0,0,1,6.47-1.35c3.15,3.87,6.92,8.89,7.45,11.43a8.28,8.28,0,0,1-16.21,3.37Z"/><path id="seed_2-4" data-name="seed 2-4" class="cls-8" d="M218.21,258.06c-1.12-2.34-1.16-8.62-1-13.61a3.72,3.72,0,0,1,6-2.84c4,3,8.84,7,10,9.31a8.27,8.27,0,1,1-14.93,7.14Z"/><path id="seed_2-3" data-name="seed 2-3" class="cls-8" d="M238.81,245.34c-1.83-1.84-4-7.74-5.46-12.5a3.72,3.72,0,0,1,4.67-4.67c4.76,1.5,10.66,3.63,12.49,5.46a8.28,8.28,0,1,1-11.7,11.71Z"/><path id="seed_2-2" data-name="seed 2-2" class="cls-8" d="M252.9,229.15c-2.43-.91-6.81-5.4-10.15-9.11a3.72,3.72,0,0,1,2.32-6.18c5-.61,11.21-1.12,13.64-.21a8.28,8.28,0,1,1-5.81,15.5Z"/><path id="seed_2-1" data-name="seed 2-1" class="cls-8" d="M262.72,209.49c-2.6,0-8.28-2.67-12.71-5a3.72,3.72,0,0,1,0-6.6c4.43-2.3,10.11-5,12.71-5a8.28,8.28,0,0,1,0,16.55Z"/></g><g id="seeds_1" data-name="seeds 1"><path id="seed_1-5" data-name="seed 1-5" class="cls-8" d="M267.43,165.86c-2.54.53-8.65-.93-13.45-2.29a3.73,3.73,0,0,1-1.34-6.47c3.86-3.15,8.88-6.92,11.43-7.45a8.28,8.28,0,0,1,3.36,16.21Z"/><path id="seed_1-4" data-name="seed 1-4" class="cls-8" d="M260.09,145.75c-2.35,1.12-8.62,1.16-13.61,1a3.72,3.72,0,0,1-2.85-6c3-4,7-8.84,9.32-10a8.27,8.27,0,0,1,7.14,14.93Z"/><path id="seed_1-3" data-name="seed 1-3" class="cls-8" d="M247.36,125.15c-1.83,1.84-7.74,4-12.5,5.47a3.73,3.73,0,0,1-4.67-4.67c1.5-4.76,3.63-10.67,5.47-12.5a8.27,8.27,0,0,1,11.7,11.7Z"/><path id="seed_1-2" data-name="seed 1-2" class="cls-8" d="M231.18,111.06c-.91,2.43-5.4,6.81-9.11,10.15a3.73,3.73,0,0,1-6.19-2.32c-.6-5-1.11-11.21-.2-13.64a8.28,8.28,0,0,1,15.5,5.81Z"/><path id="seed_1-1" data-name="seed 1-1" class="cls-8" d="M211.51,101.24c0,2.6-2.67,8.28-5,12.71a3.72,3.72,0,0,1-6.6,0c-2.31-4.43-5-10.11-5-12.71a8.28,8.28,0,0,1,16.55,0Z"/></g><g id="quarter_4" data-name="quarter 4"><g class="cls-9"><circle class="cls-10" cx="180.83" cy="181.03" r="127.83"/><circle class="cls-11" cx="180.83" cy="181.03" r="127.83"/><circle class="cls-12" cx="180.83" cy="181.03" r="127.83"/></g></g><g id="quarter_3" data-name="quarter 3"><g class="cls-13"><circle class="cls-10" cx="180.83" cy="181.03" r="127.83"/><circle class="cls-11" cx="180.83" cy="181.03" r="127.83"/><circle class="cls-12" cx="180.83" cy="181.03" r="127.83"/></g></g><g id="quarter_2" data-name="quarter 2"><g class="cls-14"><circle class="cls-10" cx="180.83" cy="181.03" r="127.83"/><circle class="cls-11" cx="180.83" cy="181.03" r="127.83"/><circle class="cls-12" cx="180.83" cy="181.03" r="127.83"/></g></g><g id="quarter_1" data-name="quarter 1"><g class="cls-15"><circle class="cls-10" cx="180.83" cy="181.03" r="127.83"/><circle class="cls-11" cx="180.83" cy="181.03" r="127.83"/><circle class="cls-12" cx="180.83" cy="181.03" r="127.83"/></g></g></g></svg>