<svg xmlns="http://www.w3.org/2000/svg" xmlns:xlink="http://www.w3.org/1999/xlink" viewBox="0 0 318.34 318.34"><defs><style>.cls-1{fill:none;}.cls-2{opacity:0.5;fill:url(#radial-gradient);}.cls-3{fill:#d8d8d8;}.cls-4{fill:url(#radial-gradient-2);}.cls-5{fill:url(#radial-gradient-3);}.cls-6{fill:#d84b35;}.cls-7{fill:#aa2f1f;}.cls-8{fill:#f4e39a;}.cls-9{clip-path:url(#clip-path);}.cls-10{fill:url(#radial-gradient-4);}.cls-11{fill:url(#radial-gradient-5);}.cls-12{fill:url(#radial-gradient-6);}.cls-13{clip-path:url(#clip-path-2);}.cls-14{fill:url(#radial-gradient-7);}.cls-15{fill:url(#radial-gradient-8);}.cls-16{fill:url(#radial-gradient-9);}.cls-17{clip-path:url(#clip-path-3);}.cls-18{fill:url(#radial-gradient-10);}.cls-19{fill:url(#radial-gradient-11);}.cls-20{fill:url(#radial-gradient-12);}.cls-21{clip-path:url(#clip-path-4);}.cls-22{fill:url(#radial-gradient-13);}.cls-23{fill:url(#radial-gradient-14);}.cls-24{fill:url(#radial-gradient-15);}</style><radialGradient id="radial-gradient" cx="159.17" cy="159.17" r="160.63" gradientUnits="userSpaceOnUse"><stop offset="0.87" stop-opacity="0.2"/><stop offset="0.98" stop-color="#fff" stop-opacity="0"/></radialGradient><radialGradient id="radial-gradient-2" cx="176.66" cy="175.51" r="189.19" gradientUnits="userSpaceOnUse"><stop offset="0.75" stop-opacity="0"/><stop offset="1"/></radialGradient><radialGradient id="radial-gradient-3" cx="146.21" cy="142.22" r="161.29" gradientTransform="translate(145.67 -53.52) rotate(48.17) scale(1 0.92)" gradientUnits="userSpaceOnUse"><stop offset="0.94" stop-color="#fff" stop-opacity="0"/><stop offset="1" stop-color="#fff"/></radialGradient><clipPath id="clip-path"><rect class="cls-1" x="31.34" y="31.14" width="128" height="128"/></clipPath><radialGradient id="radial-gradient-4" cx="152.59" cy="145.75" fx="130.9489139606968" r="130.23" gradientTransform="matrix(0.65, 0.76, -0.73, 0.63, 159.38, -61.96)" gradientUnits="userSpaceOnUse"><stop offset="0.86" stop-color="#ff6138"/><stop offset="0.86" stop-color="#ff6138"/><stop offset="1" stop-color="#e54225"/></radialGradient><radialGradient id="radial-gradient-5" cx="128.21" cy="126.09" r="140.38" gradientTransform="translate(154.37 -62.75) rotate(50.15) scale(1 1.12)" gradientUnits="userSpaceOnUse"><stop offset="0.63" stop-color="#e54225" stop-opacity="0"/><stop offset="1" stop-color="#e54225"/></radialGradient><radialGradient id="radial-gradient-6" cx="110.12" cy="85.19" r="82.03" gradientUnits="userSpaceOnUse"><stop offset="0" stop-color="#ff8b61"/><stop offset="1" stop-color="#ff8b61" stop-opacity="0"/></radialGradient><clipPath id="clip-path-2"><rect class="cls-1" x="31.34" y="158.14" width="128" height="128"/></clipPath><radialGradient id="radial-gradient-7" cx="152.59" cy="144.75" r="130.23" gradientTransform="matrix(0.65, 0.76, -0.73, 0.63, 158.65, -62.33)" xlink:href="#radial-gradient-4"/><radialGradient id="radial-gradient-8" cx="128.21" cy="125.09" r="140.38" gradientTransform="translate(153.51 -63.03) rotate(50.15) scale(1 1.12)" xlink:href="#radial-gradient-5"/><radialGradient id="radial-gradient-9" cx="110.12" cy="84.19" r="82.03" xlink:href="#radial-gradient-6"/><clipPath id="clip-path-3"><rect class="cls-1" x="158.34" y="158.14" width="128" height="128"/></clipPath><radialGradient id="radial-gradient-10" cx="151.59" cy="144.75" fx="129.9489139606968" r="130.23" gradientTransform="matrix(0.65, 0.76, -0.73, 0.63, 158.3, -61.57)" xlink:href="#radial-gradient-4"/><radialGradient id="radial-gradient-11" cx="127.21" cy="125.09" r="140.38" gradientTransform="translate(153.15 -62.26) rotate(50.15) scale(1 1.12)" xlink:href="#radial-gradient-5"/><radialGradient id="radial-gradient-12" cx="109.12" cy="84.19" r="82.03" xlink:href="#radial-gradient-6"/><clipPath id="clip-path-4"><rect class="cls-1" x="158.34" y="31.14" width="128" height="128"/></clipPath><radialGradient id="radial-gradient-13" cx="151.59" cy="145.75" fx="129.9489139606968" r="130.23" gradientTransform="matrix(0.65, 0.76, -0.73, 0.63, 159.03, -61.21)" xlink:href="#radial-gradient-4"/><radialGradient id="radial-gradient-14" cx="127.21" cy="126.09" r="140.38" gradientTransform="translate(154.01 -61.98) rotate(50.15) scale(1 1.12)" xlink:href="#radial-gradient-5"/><radialGradient id="radial-gradient-15" cx="109.12" cy="85.19" r="82.03" xlink:href="#radial-gradient-6"/></defs><title>tomato9</title><g id="Layer_2" data-name="Layer 2"><g id="outside_shadow_copy" data-name="outside shadow copy"><circle class="cls-2" cx="159.17" cy="159.17" r="159.17"/></g><g id="inset_background" data-name="inset background"><circle class="cls-3" cx="159.17" cy="159.17" r="140"/></g><g id="inset_shadow" data-name="inset shadow"><circle class="cls-4" cx="159.17" cy="159.17" r="140.03"/></g><g id="inset_highlight" data-name="inset highlight"><circle class="cls-5" cx="159.17" cy="159.17" r="140"/></g><g id="tomato_inside" data-name="tomato inside"><circle class="cls-6" cx="159.34" cy="159.14" r="127.5"/></g><g id="seed_quarter_1" data-name="seed quarter 1"><path class="cls-7" d="M212,180.74c-7.1,26.06-9.27,22.62-33.66,35.4-21,11-12.85,53.33,25.83,39.59,24.55-8.71,44-27.61,52.67-60.46C266.68,158.2,220.17,150.73,212,180.74Z"/></g><g id="seed_quarter_2" data-name="seed quarter 2"><path class="cls-7" d="M138.34,212.14c-26.06-7.1-30-16-37-36-8.17-23.35-51.42-14.33-37.69,24.36,8.71,24.54,28.85,46.92,61.69,55.64C162.41,266,168.35,220.31,138.34,212.14Z"/></g><g id="seed_quarter_3" data-name="seed quarter 3"><path class="cls-7" d="M112,137.89c7.1-26.06,18.35-29.75,34.35-34.75,19.28-6,12.16-54-26.52-40.24-24.55,8.72-43.95,27.62-52.67,60.46C57.31,160.43,103.82,167.9,112,137.89Z"/></g><g id="seed_quarter_4" data-name="seed quarter 4"><path class="cls-7" d="M181.34,106.14c26.06,7.1,24.58,13,38,37,9.84,17.63,50.73,11.68,37-27-8.71-24.55-27.61-43.95-60.46-52.67C158.81,53.63,151.33,98,181.34,106.14Z"/></g><g id="seeds_1" data-name="seeds 1"><path id="seed_1-5" data-name="seed 1-5" class="cls-8" d="M147.05,75.7c.53,2.54-.93,8.65-2.29,13.45a3.71,3.71,0,0,1-6.46,1.34c-3.16-3.86-6.93-8.88-7.45-11.42a8.27,8.27,0,1,1,16.2-3.37Z"/><path id="seed_1-4" data-name="seed 1-4" class="cls-8" d="M126,82.05c1.12,2.34,1.16,8.61,1,13.6a3.73,3.73,0,0,1-6,2.85c-4-3-8.85-7-10-9.32A8.28,8.28,0,0,1,126,82.05Z"/><path id="seed_1-3" data-name="seed 1-3" class="cls-8" d="M106.35,93.77c1.83,1.84,4,7.74,5.46,12.5a3.72,3.72,0,0,1-4.67,4.67c-4.76-1.5-10.66-3.63-12.5-5.47a8.28,8.28,0,0,1,11.71-11.7Z"/><path id="seed_1-2" data-name="seed 1-2" class="cls-8" d="M92.25,112c2.43.91,6.82,5.4,10.15,9.12a3.72,3.72,0,0,1-2.31,6.18c-5,.61-11.21,1.11-13.64.2a8.27,8.27,0,1,1,5.8-15.5Z"/><path id="seed_1-1" data-name="seed 1-1" class="cls-8" d="M85.44,132.62c2.59,0,8.28,2.67,12.7,5a3.73,3.73,0,0,1,0,6.61c-4.42,2.3-10.11,5-12.7,5a8.28,8.28,0,1,1,0-16.55Z"/></g><g id="seeds_2" data-name="seeds 2"><path id="seed_2-5" data-name="seed 2-5" class="cls-8" d="M74.73,173.25c2.54-.53,8.64.93,13.45,2.29A3.72,3.72,0,0,1,89.52,182c-3.87,3.16-8.89,6.93-11.43,7.46a8.28,8.28,0,0,1-3.36-16.21Z"/><path id="seed_2-4" data-name="seed 2-4" class="cls-8" d="M81.07,194.36c2.34-1.12,8.62-1.17,13.61-1a3.71,3.71,0,0,1,2.84,5.95c-3,4-7,8.85-9.31,10a8.27,8.27,0,1,1-7.14-14.93Z"/><path id="seed_2-3" data-name="seed 2-3" class="cls-8" d="M93.8,215c1.83-1.84,7.73-4,12.49-5.47a3.72,3.72,0,0,1,4.67,4.67c-1.5,4.76-3.63,10.67-5.46,12.5A8.27,8.27,0,0,1,93.8,215Z"/><path id="seed_2-2" data-name="seed 2-2" class="cls-8" d="M110,230.05c.91-2.43,5.4-6.82,9.11-10.15a3.71,3.71,0,0,1,6.18,2.31c.61,5,1.12,11.21.21,13.64a8.27,8.27,0,0,1-15.5-5.8Z"/><path id="seed_2-1" data-name="seed 2-1" class="cls-8" d="M130.64,239.86c0-2.59,2.67-8.27,5-12.7a3.72,3.72,0,0,1,6.6,0c2.31,4.43,5,10.11,5,12.7a8.28,8.28,0,0,1-16.56,0Z"/></g><g id="seeds_3" data-name="seeds 3"><path id="seed_3-5" data-name="seed 3-5" class="cls-8" d="M176.27,243.58c-.52-2.55.93-8.65,2.29-13.45a3.73,3.73,0,0,1,6.47-1.35c3.16,3.87,6.92,8.89,7.45,11.43a8.28,8.28,0,0,1-16.21,3.37Z"/><path id="seed_3-4" data-name="seed 3-4" class="cls-8" d="M197.38,237.23c-1.12-2.34-1.16-8.62-1-13.61a3.72,3.72,0,0,1,6-2.84c4,3,8.84,7,10,9.31a8.27,8.27,0,1,1-14.93,7.14Z"/><path id="seed_3-3" data-name="seed 3-3" class="cls-8" d="M219.32,227c-2.1-1.52-5.15-7-7.38-11.47a3.72,3.72,0,0,1,3.86-5.35c4.94.72,11.11,1.89,13.21,3.41A8.27,8.27,0,1,1,219.32,227Z"/><path id="seed_3-2" data-name="seed 3-2" class="cls-8" d="M232.08,208.33c-2.44-.91-6.82-5.41-10.16-9.12a3.72,3.72,0,0,1,2.32-6.18c4.95-.61,11.21-1.12,13.64-.21a8.28,8.28,0,0,1-5.8,15.51Z"/><path id="seed_3-1" data-name="seed 3-1" class="cls-8" d="M240.89,186.66c-2.6,0-8.28-2.67-12.7-5a3.71,3.71,0,0,1,0-6.6c4.42-2.3,10.1-5,12.7-5a8.28,8.28,0,0,1,0,16.55Z"/></g><g id="seeds_4" data-name="seeds 4"><path id="seed_4-5" data-name="seed 4-5" class="cls-8" d="M244.92,144.43c-2.58.3-8.53-1.7-13.19-3.48a3.71,3.71,0,0,1-.77-6.55c4.13-2.81,9.47-6.11,12-6.41a8.28,8.28,0,0,1,1.91,16.44Z"/><path id="seed_4-4" data-name="seed 4-4" class="cls-8" d="M239.26,123.92c-2.35,1.12-8.62,1.16-13.61,1a3.72,3.72,0,0,1-2.85-6c3-4,7-8.84,9.32-10a8.27,8.27,0,0,1,7.14,14.93Z"/><path id="seed_4-3" data-name="seed 4-3" class="cls-8" d="M228.53,102.32c-1.83,1.84-7.74,4-12.5,5.47a3.73,3.73,0,0,1-4.67-4.67c1.5-4.76,3.63-10.67,5.47-12.5a8.27,8.27,0,0,1,11.7,11.7Z"/><path id="seed_4-2" data-name="seed 4-2" class="cls-8" d="M211.35,88.23c-.91,2.43-5.4,6.81-9.11,10.15a3.73,3.73,0,0,1-6.19-2.32c-.6-5-1.11-11.21-.2-13.64a8.28,8.28,0,0,1,15.5,5.81Z"/><path id="seed_4-1" data-name="seed 4-1" class="cls-8" d="M189.68,79.41c0,2.6-2.66,8.28-5,12.71a3.72,3.72,0,0,1-6.6,0c-2.31-4.43-5-10.11-5-12.71a8.28,8.28,0,0,1,16.55,0Z"/></g><g id="quarter_1" data-name="quarter 1"><g class="cls-9"><circle class="cls-10" cx="159" cy="159.2" r="127.83"/><circle class="cls-11" cx="159" cy="159.2" r="127.83"/><circle class="cls-12" cx="159" cy="159.2" r="127.83"/></g></g><g id="quarter_2" data-name="quarter 2"><g class="cls-13"><circle class="cls-14" cx="159" cy="158.2" r="127.83"/><circle class="cls-15" cx="159" cy="158.2" r="127.83"/><circle class="cls-16" cx="159" cy="158.2" r="127.83"/></g></g><g id="quarter_3" data-name="quarter 3"><g class="cls-17"><circle class="cls-18" cx="158" cy="158.2" r="127.83"/><circle class="cls-19" cx="158" cy="158.2" r="127.83"/><circle class="cls-20" cx="158" cy="158.2" r="127.83"/></g></g><g id="quarter_4" data-name="quarter 4"><g class="cls-21"><circle class="cls-22" cx="158" cy="159.2" r="127.83"/><circle class="cls-23" cx="158" cy="159.2" r="127.83"/><circle class="cls-24" cx="158" cy="159.2" r="127.83"/></g></g></g></svg>